# xmcd
#
# Track frame offsets:
#  182
#  11112
#  22237
#  32995
#  45567
#  55712
#  68302
#  78142
#  87845
#  98560
#  108532
#  117980
#  127427
#  140290
#  152215
#  162972
#  174327
#  184682
#
# Disc length: 2591 seconds
#
# Revision: 0
# Processed by: cddbd v1.5.1PL2 Copyright (c) Steve Scherf et al.
# Submitted via: Collectorz.com_Music_Collector 6.9
#
DISCID=e80a1d12
DTITLE=Major Lance - The Story of Major Lance Vol.1
DYEAR=1999
DGENRE=Northern Soul
TTITLE0=Hey Little Girl
TTITLE1=The Matador
TTITLE2=Rhythm
TTITLE3=It Ain't No Use
TTITLE4=Gotta Get Away
TTITLE5=The Monkey Time
TTITLE6=Um Um Um Um Um Um
TTITLE7=Girls
TTITLE8=Come See
TTITLE9=Sometimes I Wonder
TTITLE10=Ain't It A Shame
TTITLE11=Sweet Music
TTITLE12=You Belong To My Heart
TTITLE13=Investigate
TTITLE14=What's Happening
TTITLE15=The Beat
TTITLE16=Everybody Loves A Good Time
TTITLE17=Keep On Loving You
EXTD=
EXTT0=
EXTT1=
EXTT2=
EXTT3=
EXTT4=
EXTT5=
EXTT6=
EXTT7=
EXTT8=
EXTT9=
EXTT10=
EXTT11=
EXTT12=
EXTT13=
EXTT14=
EXTT15=
EXTT16=
EXTT17=
PLAYORDER=
